HIERARCHY
ROOT Hips
{
	OFFSET 0.00000 0.00000 0.00000
	CHANNELS 6 Xposition Yposition Zposition Zrotation Yrotation Xrotation 
	JOINT LHipJoint
	{
		OFFSET 0 0 0
		CHANNELS 3 Zrotation Yrotation Xrotation
		JOINT LeftUpLeg
		{
			OFFSET 1.75344 -1.53157 0.77399
			CHANNELS 3 Zrotation Yrotation Xrotation
			JOINT LeftLeg
			{
				OFFSET 2.25415 -6.19323 0.00000
				CHANNELS 3 Zrotation Yrotation Xrotation
				JOINT LeftFoot
				{
					OFFSET 2.30342 -6.32861 0.00000
					CHANNELS 3 Zrotation Yrotation Xrotation
					JOINT LeftToeBase
					{
						OFFSET 0.10958 -0.30108 1.49206
						CHANNELS 3 Zrotation Yrotation Xrotation
						End Site
						{
							OFFSET 0.00000 -0.00000 0.77783
						}
					}
				}
			}
		}
	}
	JOINT RHipJoint
	{
		OFFSET 0 0 0
		CHANNELS 3 Zrotation Yrotation Xrotation
		JOINT RightUpLeg
		{
			OFFSET -1.81912 -1.53156 0.77399
			CHANNELS 3 Zrotation Yrotation Xrotation
			JOINT RightLeg
			{
				OFFSET -2.22882 -6.12365 0.00000
				CHANNELS 3 Zrotation Yrotation Xrotation
				JOINT RightFoot
				{
					OFFSET -2.21943 -6.09785 0.00000
					CHANNELS 3 Zrotation Yrotation Xrotation
					JOINT RightToeBase
					{
						OFFSET -0.18931 -0.52012 1.59379
						CHANNELS 3 Zrotation Yrotation Xrotation
						End Site
						{
							OFFSET -0.00000 -0.00000 0.84686
						}
					}
				}
			}
		}
	}
	JOINT LowerBack
	{
		OFFSET 0 0 0
		CHANNELS 3 Zrotation Yrotation Xrotation
		JOINT Spine
		{
			OFFSET -0.00200 1.66634 -0.14248
			CHANNELS 3 Zrotation Yrotation Xrotation
			JOINT Spine1
			{
				OFFSET -0.00875 1.64542 0.09514
				CHANNELS 3 Zrotation Yrotation Xrotation
				JOINT Neck
				{
					OFFSET 0 0 0
					CHANNELS 3 Zrotation Yrotation Xrotation
					JOINT Neck1
					{
						OFFSET 0.02257 1.59605 0.00839
						CHANNELS 3 Zrotation Yrotation Xrotation
						JOINT Head
						{
							OFFSET -0.10214 1.57530 -0.23335
							CHANNELS 3 Zrotation Yrotation Xrotation
							End Site
							{
								OFFSET -0.03588 1.60717 -0.08062
							}
						}
					}
				}
				JOINT LeftShoulder
				{
					OFFSET 0 0 0
					CHANNELS 3 Zrotation Yrotation Xrotation
					JOINT LeftArm
					{
						OFFSET 2.54983 1.10186 0.40078
						CHANNELS 3 Zrotation Yrotation Xrotation
						JOINT LeftForeArm
						{
							OFFSET 4.28840 -0.00000 0.00000
							CHANNELS 3 Zrotation Yrotation Xrotation
							JOINT LeftHand
							{
								OFFSET 3.06552 -0.00000 -0.00000
								CHANNELS 3 Zrotation Yrotation Xrotation
								JOINT LeftFingerBase
								{
									OFFSET 0 0 0
									CHANNELS 3 Zrotation Yrotation Xrotation
									JOINT LeftHandIndex1
									{
										OFFSET 0.75304 -0.00000 0.00000
										CHANNELS 3 Zrotation Yrotation Xrotation
										End Site
										{
											OFFSET 0.60712 -0.00000 0.00000
										}
									}
								}
								JOINT LThumb
								{
									OFFSET 0 0 0
									CHANNELS 3 Zrotation Yrotation Xrotation
									End Site
									{
										OFFSET 0.61639 -0.00000 0.61639
									}
								}
							}
						}
					}
				}
				JOINT RightShoulder
				{
					OFFSET 0 0 0
					CHANNELS 3 Zrotation Yrotation Xrotation
					JOINT RightArm
					{
						OFFSET -2.60909 1.35448 0.21802
						CHANNELS 3 Zrotation Yrotation Xrotation
						JOINT RightForeArm
						{
							OFFSET -4.52172 -0.00000 -0.00000
							CHANNELS 3 Zrotation Yrotation Xrotation
							JOINT RightHand
							{
								OFFSET -2.89140 -0.00000 0.00000
								CHANNELS 3 Zrotation Yrotation Xrotation
								JOINT RightFingerBase
								{
									OFFSET 0 0 0
									CHANNELS 3 Zrotation Yrotation Xrotation
									JOINT RightHandIndex1
									{
										OFFSET -0.68054 -0.00000 0.00000
										CHANNELS 3 Zrotation Yrotation Xrotation
										End Site
										{
											OFFSET -0.54867 -0.00000 0.00000
										}
									}
								}
								JOINT RThumb
								{
									OFFSET 0 0 0
									CHANNELS 3 Zrotation Yrotation Xrotation
									End Site
									{
										OFFSET -0.55705 -0.00000 0.55705
									}
								}
							}
						}
					}
				}
			}
		}
	}
}
MOTION
Frames: 11
Frame Time: .0083333
9.9091 15.4438 2.1343 4.0917 6.1310 -0.4247 0.0000 0.0000 0.0000 -35.4764 -11.9437 17.7290 0.3667 3.8897 10.7665 0.7255 9.6177 -22.3185 0.3990 -4.0553 -11.2324 0.0000 0.0000 0.0000 12.7065 26.8306 -18.3472 -1.5230 -7.7925 22.0856 1.0287 -29.4326 -36.0189 -0.1613 -2.5878 7.1332 -4.4143 -0.8063 7.4390 0.0689 -1.5556 -3.7570 2.7747 -0.5209 -8.0360 -5.4812 -2.7278 -7.8578 3.9107 -3.4018 8.3560 1.8883 -1.6549 3.9393 -0.0000 -0.0000 0.0000 -88.6126 -1.2494 31.0782 26.6431 -37.8367 -9.2794 -0.0000 -0.0000 3.9048 10.3911 -34.4292 -5.9191 -7.1250 0.0000 -0.0000 -12.2229 -4.1946 13.3831 -0.0000 -0.0000 0.0000 83.5925 -16.5053 23.4157 -15.9645 25.4725 -3.6307 0.0000 0.0000 18.3003 0.7075 -52.6510 -0.5625 7.1250 -0.0000 -0.0000 72.0739 -70.9855 -52.0816
9.8918 15.4302 2.2757 4.3894 6.4797 -0.0824 0.0000 0.0000 0.0000 -35.4998 -11.3719 18.1772 0.3186 3.6283 10.0331 0.6236 9.6298 -21.3764 0.7696 -5.6019 -15.6335 0.0000 0.0000 0.0000 11.5180 29.7569 -17.8232 -1.3989 -7.4822 21.1520 0.8210 -30.6500 -39.0350 -0.3101 -3.5801 9.8983 -4.7245 -0.8749 7.2336 -0.0145 -1.6795 -3.8736 2.8740 -0.5657 -8.0284 -5.6529 -2.8097 -7.9518 3.9499 -3.4954 8.5685 1.9206 -1.7042 4.0279 -0.0000 -0.0000 0.0000 -88.7306 -0.9321 31.4906 27.3299 -38.4919 -9.7037 -0.0000 -0.0000 3.5742 10.4739 -34.3198 -5.9505 -7.1250 0.0000 -0.0000 -12.1686 -4.0999 13.3021 -0.0000 -0.0000 0.0000 83.5176 -16.7614 23.6352 -15.9498 25.4526 -3.6244 0.0000 0.0000 18.4220 1.0784 -52.7948 -0.8590 7.1250 -0.0000 -0.0000 72.6741 -70.9010 -52.5338
9.8814 15.4165 2.4339 4.5262 6.5384 -0.0334 0.0000 0.0000 0.0000 -35.4941 -10.6766 18.9246 0.2783 3.3928 9.3743 0.5883 9.4808 -20.8931 0.8874 -6.0048 -16.7984 0.0000 0.0000 0.0000 10.7480 32.5956 -17.0264 -1.3139 -7.2605 20.4896 0.4729 -31.3883 -41.7380 -0.4970 -4.5200 12.5443 -4.6939 -0.8253 7.1385 -0.2064 -1.6228 -4.0055 2.6452 -0.5407 -8.1264 -5.5056 -2.8805 -7.8450 3.9074 -3.6182 8.9171 1.8762 -1.7644 4.1189 -0.0000 0.0000 0.0000 -88.6098 -0.4848 32.1370 27.8459 -38.9740 -10.0266 -0.0000 -0.0000 2.9639 10.1034 -34.0517 -5.6978 -7.1250 0.0000 -0.0000 -12.3489 -3.7851 13.4448 -0.0000 0.0000 0.0000 83.7224 -17.2231 23.5766 -15.9595 25.4656 -3.6285 0.0000 0.0000 18.7927 2.1095 -52.8296 -1.6812 7.1250 -0.0000 -0.0000 73.3356 -70.5542 -52.7241
9.8612 15.4052 2.5764 4.6429 6.9229 0.2562 0.0000 0.0000 0.0000 -35.3909 -10.5481 19.2955 0.2642 3.3070 9.1346 0.5872 9.0788 -20.5092 0.8349 -5.8290 -16.2892 0.0000 0.0000 0.0000 9.7867 35.5262 -16.4550 -1.2393 -7.0592 19.8910 -0.0959 -32.0005 -44.9148 -0.7951 -5.6917 15.8924 -4.8056 -0.8668 7.0771 -0.2946 -1.6992 -4.1828 2.6256 -0.5676 -8.2771 -5.4553 -2.9390 -7.9742 3.8062 -3.6947 9.3126 1.8292 -1.8056 4.2621 -0.0000 0.0000 0.0000 -88.6414 -0.0665 32.6295 28.3398 -39.4272 -10.3388 -0.0000 -0.0000 2.5685 10.0423 -34.2637 -5.6936 -7.1250 0.0000 -0.0000 -12.3993 -3.9831 13.5425 -0.0000 0.0000 0.0000 83.8481 -17.4519 23.3749 -15.8989 25.3834 -3.6025 0.0000 0.0000 19.1302 2.5112 -52.5061 -1.9929 7.1250 -0.0000 -0.0000 72.6992 -70.3152 -51.8395
9.8384 15.3892 2.7244 4.6506 7.1431 0.3965 0.0000 0.0000 0.0000 -35.1621 -10.2278 19.6343 0.2622 3.2940 9.0985 0.5742 8.8687 -20.1847 0.8085 -5.7383 -16.0270 0.0000 0.0000 0.0000 9.2070 38.4564 -15.6504 -1.1824 -6.9012 19.4229 -0.6610 -32.7085 -47.8802 -1.0604 -6.5471 18.3804 -4.9285 -0.8829 6.9409 -0.2947 -1.7265 -4.2087 2.6949 -0.5752 -8.2208 -5.4420 -2.9812 -8.0959 3.7417 -3.7438 9.4895 1.8018 -1.8320 4.3373 0.0000 -0.0000 0.0000 -88.7658 0.1289 32.9007 28.6787 -39.7336 -10.5547 -0.0000 -0.0000 2.3976 10.4398 -34.7340 -5.9930 -7.1250 0.0000 -0.0000 -12.2224 -4.4989 13.4428 0.0000 -0.0000 0.0000 83.8815 -17.5437 23.3491 -15.8417 25.3056 -3.5780 0.0000 0.0000 19.2905 2.8247 -52.4807 -2.2411 7.1250 -0.0000 -0.0000 72.8114 -70.1993 -51.8003
9.8126 15.3755 2.8779 4.4254 7.3276 0.3339 0.0000 0.0000 0.0000 -34.7050 -9.8419 19.9470 0.2855 3.4364 9.4962 0.5741 8.8217 -20.1407 0.9011 -6.0497 -16.9285 0.0000 0.0000 0.0000 9.2881 40.9357 -14.4813 -1.1177 -6.7161 18.8771 -1.4111 -32.9476 -50.6570 -1.3819 -7.4384 21.0209 -4.8560 -0.9196 6.8119 -0.2501 -1.7541 -4.1239 2.7006 -0.5975 -8.0512 -5.3374 -3.0272 -8.2066 3.6688 -3.8080 9.6176 1.7563 -1.8632 4.3946 0.0000 -0.0000 0.0000 -88.7963 0.3067 33.1394 29.0800 -40.0916 -10.8122 -0.0000 -0.0000 2.0068 10.5250 -34.8903 -6.0662 -7.1250 0.0000 -0.0000 -12.1899 -4.6639 13.4379 0.0000 -0.0000 0.0000 83.9117 -17.4638 23.4314 -15.7494 25.1796 -3.5387 0.0000 0.0000 19.3646 3.4351 -52.7032 -2.7338 7.1250 -0.0000 -0.0000 73.7392 -70.0596 -52.4888
9.7975 15.3682 3.0207 4.6052 7.7493 0.5370 0.0000 0.0000 0.0000 -34.6278 -9.6301 20.1405 0.2989 3.5155 9.7174 0.5911 8.3038 -19.8481 0.8883 -6.0076 -16.8065 0.0000 0.0000 0.0000 8.8728 41.8073 -14.0830 -1.0797 -6.6046 18.5490 -1.8641 -32.6935 -51.8080 -1.5661 -7.8968 22.4010 -4.9317 -1.0108 6.7425 -0.3252 -1.8878 -4.1931 2.6801 -0.6592 -8.0753 -5.4773 -3.1021 -8.4774 3.6892 -3.8891 10.0591 1.7745 -1.9054 4.5822 -0.0000 0.0000 0.0000 -88.8572 0.6006 33.4551 29.4345 -40.4038 -11.0413 -0.0000 -0.0000 1.5813 10.3998 -34.9399 -6.0004 -7.1250 0.0000 -0.0000 -12.2619 -4.6939 13.5269 -0.0000 0.0000 0.0000 83.8081 -17.4212 23.4576 -15.6494 25.0429 -3.4962 0.0000 0.0000 19.3409 3.4924 -52.5575 -2.7741 7.1250 -0.0000 -0.0000 73.3932 -69.9947 -52.0860
9.7658 15.3614 3.1833 4.1296 7.9039 0.4367 0.0000 0.0000 0.0000 -33.8313 -9.2429 20.5522 0.3093 3.5753 9.8848 0.6179 7.5963 -19.5140 0.9282 -6.1374 -17.1835 0.0000 0.0000 0.0000 9.7192 42.5752 -13.2719 -1.0527 -6.5241 18.3128 -1.8815 -32.8665 -52.0412 -1.6377 -8.0668 22.9173 -4.6805 -0.9879 6.7365 -0.1891 -1.8243 -4.3102 2.6766 -0.6324 -8.2051 -5.7025 -3.1226 -8.2182 3.8852 -3.9310 10.3210 1.8714 -1.9268 4.6296 0.0000 0.0000 0.0000 -88.9414 1.0899 33.6155 29.4706 -40.4353 -11.0646 -0.0000 -0.0000 1.5294 10.2908 -35.1388 -5.9658 -7.1250 0.0000 -0.0000 -12.3382 -4.8717 13.6503 0.0000 0.0000 0.0000 83.7936 -17.7989 23.3555 -15.6690 25.0698 -3.5045 0.0000 0.0000 19.4135 3.8559 -52.5562 -3.0631 7.1250 -0.0000 -0.0000 73.5974 -69.8701 -52.1207
9.7487 15.3537 3.3383 4.2646 8.0972 0.5125 0.0000 0.0000 0.0000 -33.6649 -8.7052 20.8863 0.3116 3.5886 9.9221 0.6081 6.8745 -18.8159 1.2069 -6.9698 -19.6258 0.0000 0.0000 0.0000 9.9924 41.2846 -13.2583 -1.0481 -6.5102 18.2721 -1.0743 -33.0924 -49.7292 -1.3415 -7.3332 20.7063 -4.7763 -0.9585 6.6525 -0.2823 -1.8008 -4.4295 2.6279 -0.6142 -8.2881 -5.6186 -3.1183 -7.7300 3.7724 -3.9461 10.1820 1.8290 -1.9426 4.5022 -0.0000 -0.0000 0.0000 -89.0474 1.5486 33.6941 29.4930 -40.4548 -11.0791 -0.0000 -0.0000 1.5421 10.0992 -35.3024 -5.8767 -7.1250 0.0000 -0.0000 -12.4557 -5.0030 13.8126 -0.0000 -0.0000 0.0000 83.8322 -18.1077 23.1705 -15.7356 25.1609 -3.5328 0.0000 0.0000 19.6191 4.4403 -52.7616 -3.5376 7.1250 -0.0000 -0.0000 74.4558 -69.7343 -52.7524
9.7276 15.3512 3.4967 4.1928 8.2915 0.5007 0.0000 0.0000 0.0000 -33.2531 -8.1619 21.2901 0.3121 3.5913 9.9295 0.5776 6.4095 -18.1111 1.2875 -7.1901 -20.2797 0.0000 0.0000 0.0000 10.7093 39.4728 -13.2425 -1.0533 -6.5258 18.3180 -0.4720 -32.6222 -47.1062 -1.1580 -6.8319 19.2183 -4.7906 -0.9321 6.4585 -0.2405 -1.7511 -4.3981 2.6680 -0.5923 -8.1428 -5.5257 -3.1743 -7.6911 3.5338 -4.0086 10.2321 1.7365 -1.9840 4.5076 -0.0000 0.0000 0.0000 -89.1373 1.9167 33.9952 29.6864 -40.6231 -11.2049 -0.0000 -0.0000 1.2873 9.8718 -35.3974 -5.7560 -7.1250 0.0000 -0.0000 -12.5862 -5.0625 13.9763 -0.0000 0.0000 0.0000 83.7419 -18.0557 23.0794 -15.6477 25.0407 -3.4955 0.0000 0.0000 19.5798 3.5578 -52.5325 -2.8252 7.1250 -0.0000 -0.0000 73.3658 -69.9645 -52.0230
9.7028 15.3538 3.6547 4.1668 8.5334 0.4671 0.0000 0.0000 0.0000 -32.8722 -7.7171 21.8824 0.2946 3.4905 9.6474 0.5187 6.2204 -17.2905 1.2116 -6.9826 -19.6640 0.0000 0.0000 0.0000 11.4614 37.6524 -13.2564 -1.0910 -6.6378 18.6467 0.0433 -32.0719 -44.4646 -1.0086 -6.3901 17.9205 -4.8337 -0.9509 6.4068 -0.2326 -1.7777 -4.4220 2.7028 -0.6024 -8.1351 -5.6525 -3.2385 -7.7729 3.5799 -4.0884 10.5905 1.7633 -2.0259 4.6387 -0.0000 0.0000 0.0000 -89.1794 2.4083 34.0995 29.7561 -40.6834 -11.2503 -0.0000 -0.0000 1.2054 9.7552 -35.4543 -5.6950 -7.1250 0.0000 -0.0000 -12.6538 -5.1011 14.0629 -0.0000 0.0000 0.0000 83.6944 -18.0832 23.0724 -15.5415 24.8950 -3.4507 0.0000 0.0000 19.4119 2.1159 -52.3824 -1.6763 7.1250 -0.0000 -0.0000 72.1457 -70.4117 -51.4476
